<svg width="90" height="90" viewBox="0 0 90 90" fill="none" xmlns="http://www.w3.org/2000/svg">
<rect opacity="0.08" width="90" height="90" rx="45" fill="url(#paint0_linear_485_8452)"/>
<path d="M52.6011 30.6309C58.0619 30.6309 61.2848 33.7731 61.2848 39.152H54.5856V39.2069C51.4764 39.2069 48.9559 41.6643 48.9559 44.6956C48.9559 47.7269 51.4764 50.1843 54.5856 50.1843H61.2848V50.6783C61.2848 55.9886 58.0619 59.1309 52.6011 59.1309H38.3019C32.8411 59.1309 29.6182 55.9886 29.6182 50.6783V39.0834C29.6182 33.7731 32.8411 30.6309 38.3019 30.6309H52.6011ZM60.1026 41.5122C60.7555 41.5122 61.2848 42.0282 61.2848 42.6648V46.6715C61.2772 47.305 60.7524 47.8168 60.1026 47.8242H54.7122C53.1382 47.8448 51.7619 46.7941 51.4048 45.2994C51.226 44.3715 51.477 43.414 52.0905 42.6835C52.704 41.9531 53.6173 41.5243 54.5856 41.5122H60.1026ZM55.3456 43.3646H54.8248C54.5051 43.3609 54.1972 43.4822 53.9698 43.7013C53.7424 43.9205 53.6145 44.2192 53.6145 44.531C53.6144 45.1849 54.1541 45.7172 54.8248 45.7247H55.3456C56.014 45.7247 56.5559 45.1964 56.5559 44.5447C56.5559 43.8929 56.014 43.3646 55.3456 43.3646ZM46.0567 36.7919H37.1196C36.4566 36.7919 35.917 37.3119 35.9093 37.9583C35.9093 38.6122 36.4489 39.1445 37.1196 39.152H46.0567C46.7252 39.152 47.2671 38.6237 47.2671 37.972C47.2671 37.3202 46.7252 36.7919 46.0567 36.7919Z" fill="url(#paint1_linear_485_8452)"/>
<defs>
<linearGradient id="paint0_linear_485_8452" x1="0" y1="0" x2="90" y2="90" gradientUnits="userSpaceOnUse">
<stop stop-color="#8482FF"/>
<stop offset="1" stop-color="#7723FE"/>
</linearGradient>
<linearGradient id="paint1_linear_485_8452" x1="29.6182" y1="30.6309" x2="57.9607" y2="62.1226" gradientUnits="userSpaceOnUse">
<stop stop-color="#8482FF"/>
<stop offset="1" stop-color="#7723FE"/>
</linearGradient>
</defs>
</svg>
