<svg width="90" height="90" viewBox="0 0 90 90" fill="none" xmlns="http://www.w3.org/2000/svg">
<rect opacity="0.08" width="90" height="90" rx="45" fill="url(#paint0_linear_485_8476)"/>
<path d="M39.1094 29.7717C40.1069 29.8021 41.0727 29.9762 42.0085 30.2945H42.1019C42.1652 30.3246 42.2127 30.3578 42.2444 30.3879C42.5943 30.5003 42.9252 30.627 43.2419 30.8011L43.8435 31.0703C44.081 31.197 44.366 31.4329 44.5244 31.5295C44.6827 31.6229 44.8569 31.7195 44.9994 31.8287C46.7585 30.4845 48.8944 29.7561 51.0952 29.7717C52.0943 29.7717 53.0918 29.9129 54.0402 30.2311C59.8843 32.1311 61.9901 38.5436 60.231 44.1486C59.2335 47.0129 57.6027 49.627 55.4668 51.7629C52.4094 54.7237 49.0543 57.3521 45.4427 59.6162L45.0469 59.8553L44.6352 59.6004C41.011 57.3521 37.6369 54.7237 34.551 51.7471C32.4293 49.6111 30.7969 47.0129 29.7835 44.1486C27.9944 38.5436 30.1002 32.1311 36.0076 30.1979C36.4668 30.0396 36.9402 29.9287 37.4152 29.867H37.6052C38.0501 29.8021 38.4919 29.7717 38.9352 29.7717H39.1094ZM53.2169 34.7753C52.5677 34.5521 51.8552 34.902 51.6177 35.567C51.396 36.232 51.7444 36.9603 52.4094 37.1962C53.4243 37.5762 54.1035 38.5753 54.1035 39.6821V39.7311C54.0735 40.0937 54.1827 40.4436 54.4044 40.7128C54.626 40.982 54.9585 41.1387 55.3069 41.172C55.956 41.1546 56.5102 40.6336 56.5577 39.9671V39.7786C56.6052 37.5604 55.261 35.5511 53.2169 34.7753Z" fill="url(#paint1_linear_485_8476)"/>
<defs>
<linearGradient id="paint0_linear_485_8476" x1="0" y1="0" x2="90" y2="90" gradientUnits="userSpaceOnUse">
<stop stop-color="#8482FF"/>
<stop offset="1" stop-color="#7723FE"/>
</linearGradient>
<linearGradient id="paint1_linear_485_8476" x1="29.166" y1="29.7715" x2="59.2103" y2="61.3969" gradientUnits="userSpaceOnUse">
<stop stop-color="#8482FF"/>
<stop offset="1" stop-color="#7723FE"/>
</linearGradient>
</defs>
</svg>
