<svg width="90" height="90" viewBox="0 0 90 90" fill="none" xmlns="http://www.w3.org/2000/svg">
<rect opacity="0.08" width="90" height="90" rx="45" fill="url(#paint0_linear_485_8464)"/>
<path d="M45.3701 49.0207C50.8028 49.0207 55.4416 49.882 55.4416 53.3286C55.4416 56.7737 50.8326 57.6663 45.3701 57.6663C39.9374 57.6663 35.2987 56.8051 35.2987 53.3599C35.2987 49.9134 39.9077 49.0207 45.3701 49.0207ZM54.0564 46.9454C56.1333 46.9069 58.3662 47.1921 59.1914 47.3946C60.9394 47.7382 62.0892 48.4398 62.5655 49.4594C62.9682 50.2964 62.9682 51.2675 62.5655 52.1031C61.8368 53.6845 59.4877 54.1921 58.5747 54.3233C58.3861 54.3518 58.2344 54.1879 58.2542 53.9982C58.7207 49.6162 55.0105 47.5386 54.0507 47.0609C54.0096 47.0395 54.0011 47.0067 54.0053 46.9867C54.0082 46.9725 54.0252 46.9497 54.0564 46.9454ZM36.4553 46.9424L36.8464 46.946C36.8776 46.9502 36.8932 46.9731 36.896 46.9859C36.9003 47.0073 36.8917 47.0387 36.852 47.0615C35.8908 47.5392 32.1807 49.6168 32.6471 53.9973C32.6669 54.1884 32.5167 54.351 32.3281 54.3239C31.4151 54.1927 29.0659 53.6851 28.3372 52.1037C27.9332 51.2666 27.9332 50.297 28.3372 49.4599C28.8136 48.4404 29.9619 47.7388 31.71 47.3937C32.5365 47.1927 34.768 46.9075 36.8464 46.946L36.4553 46.9424ZM45.3701 32.333C49.069 32.333 52.0348 35.3133 52.0348 39.035C52.0348 42.7554 49.069 45.7385 45.3701 45.7385C41.6713 45.7385 38.7054 42.7554 38.7054 39.035C38.7054 35.3133 41.6713 32.333 45.3701 32.333ZM54.4179 33.4507C57.9906 33.4507 60.7962 36.8316 59.8407 40.5976C59.1956 43.1329 56.8606 44.817 54.2591 44.7486C53.9982 44.7414 53.7416 44.7172 53.4935 44.6744C53.3135 44.643 53.2228 44.4391 53.3248 44.288C54.3172 42.8192 54.8829 41.0525 54.8829 39.1559C54.8829 37.1767 54.2648 35.3315 53.1916 33.8186C53.1575 33.7715 53.132 33.6988 53.166 33.6446C53.1944 33.6004 53.2469 33.5776 53.2965 33.5662C53.658 33.492 54.0294 33.4507 54.4179 33.4507ZM36.4827 33.4505C36.8712 33.4505 37.2426 33.4919 37.6056 33.566C37.6538 33.5774 37.7076 33.6017 37.736 33.6445C37.7686 33.6987 37.7445 33.7714 37.7105 33.8184C36.6373 35.3314 36.0191 37.1766 36.0191 39.1558C36.0191 41.0523 36.5848 42.8191 37.5772 44.2878C37.6793 44.439 37.5886 44.6429 37.4085 44.6743C37.159 44.7185 36.9038 44.7413 36.6429 44.7484C34.0414 44.8169 31.7064 43.1328 31.0614 40.5974C30.1044 36.8315 32.9101 33.4505 36.4827 33.4505Z" fill="url(#paint1_linear_485_8464)"/>
<defs>
<linearGradient id="paint0_linear_485_8464" x1="0" y1="0" x2="90" y2="90" gradientUnits="userSpaceOnUse">
<stop stop-color="#F9EC7D"/>
<stop offset="1" stop-color="#F5B100"/>
</linearGradient>
<linearGradient id="paint1_linear_485_8464" x1="28.0342" y1="32.333" x2="52.1351" y2="65.4717" gradientUnits="userSpaceOnUse">
<stop stop-color="#F9EC7D"/>
<stop offset="1" stop-color="#F5B100"/>
</linearGradient>
</defs>
</svg>
